<svg xmlns="http://www.w3.org/2000/svg" width="40.047" height="30.035" viewBox="0 0 40.047 30.035">
  <path id="car" d="M39.111,72.76H34.428l-1.3-3.254A8.716,8.716,0,0,0,24.994,64H15.06a8.719,8.719,0,0,0-8.134,5.506l-1.3,3.254H.943a.938.938,0,0,0-.91,1.166L.5,75.8a.938.938,0,0,0,.91.711h1.57a4.971,4.971,0,0,0-1.727,3.754v3.754A4.965,4.965,0,0,0,2.506,87.3v4.229a2.5,2.5,0,0,0,2.5,2.5h2.5a2.5,2.5,0,0,0,2.5-2.5v-2.5H30.039v2.5a2.5,2.5,0,0,0,2.5,2.5h2.5a2.5,2.5,0,0,0,2.5-2.5V87.3a4.962,4.962,0,0,0,1.251-3.28V80.269a4.973,4.973,0,0,0-1.726-3.754h1.57a.938.938,0,0,0,.91-.711l.469-1.877A.939.939,0,0,0,39.111,72.76ZM11.574,71.366a3.755,3.755,0,0,1,3.486-2.36h9.934a3.755,3.755,0,0,1,3.486,2.36l1.559,3.9H10.015ZM7.512,84.008a2.5,2.5,0,1,1,0-4.99c1.5,0,3.754,2.246,3.754,3.743S9.014,84.008,7.512,84.008Zm25.03,0c-1.5,0-3.754.25-3.754-1.248s2.253-3.743,3.754-3.743a2.5,2.5,0,1,1,0,4.99Z" transform="translate(-0.004 -64)" fill="#fff"/>
</svg>
