<svg xmlns="http://www.w3.org/2000/svg" width="36.871" height="33.006" viewBox="0 0 36.871 33.006">
  <g id="Grupo_5845" data-name="Grupo 5845" transform="translate(-130.852 -316.852)">
    <g id="iconfinder_restaurant-store-coffee_shop-business-buildings-food_4848465" transform="translate(130.852 316.852)" opacity="0.3">
      <g id="Grupo_4612" data-name="Grupo 4612" transform="translate(0 0)">
        <path id="Trazado_956" data-name="Trazado 956" d="M14.778,34.311V20.948h-7.8V34.311ZM8.1,24.289H9.21V27.63H8.1Z" transform="translate(-3.642 -7.585)" fill="#fff"/>
        <g id="Grupo_4611" data-name="Grupo 4611" transform="translate(0 0)">
          <path id="Trazado_947" data-name="Trazado 947" d="M12.313,9.009a2.227,2.227,0,0,0,2.227-2.227V2.328H10.086V6.782A2.227,2.227,0,0,0,12.313,9.009Z" transform="translate(-4.518 -2.328)" fill="#fff"/>
          <path id="Trazado_948" data-name="Trazado 948" d="M35.661,39.859a.557.557,0,0,1-.746,0,1.114,1.114,0,0,0-1.481,0,.557.557,0,0,1-.746,0,1.114,1.114,0,0,0-1.481,0,.557.557,0,0,1-.746,0,1.114,1.114,0,0,0-1.481,0,.557.557,0,0,1-.746,0,1.111,1.111,0,1,0-.741,1.938H36.4a1.114,1.114,0,1,0-.741-1.938Z" transform="translate(-9.119 -12.843)" fill="#fff"/>
          <path id="Trazado_949" data-name="Trazado 949" d="M3.879,12.405V31.531H4.993V17.612a.557.557,0,0,1,.557-.557h8.909a.557.557,0,0,1,.557.557v13.92h4.209a2.227,2.227,0,0,1,1.915-1.114,2.194,2.194,0,0,1,1.114.306,2.227,2.227,0,0,1,2.227,0,2.227,2.227,0,0,1,2.227,0,2.227,2.227,0,0,1,2.227,0,2.194,2.194,0,0,1,1.114-.306,2.227,2.227,0,0,1,1.915,1.114h1.982V12.405a3.341,3.341,0,0,1-3.9-1.3,3.341,3.341,0,0,1-5.568,0,3.341,3.341,0,0,1-5.568,0,3.341,3.341,0,0,1-5.568,0,3.341,3.341,0,0,1-5.568,0,3.341,3.341,0,0,1-3.9,1.3Zm20.6,16.57-.718.724-.791-.791.724-.718a.791.791,0,0,0,0-1.114l-.329-.329a1.893,1.893,0,0,1,0-2.684l.718-.724.791.791-.724.718a.791.791,0,0,0,0,1.114l.329.329a1.893,1.893,0,0,1,0,2.684Zm3.341,0L27.1,29.7l-.791-.791.724-.718a.791.791,0,0,0,0-1.114l-.329-.329a1.893,1.893,0,0,1,0-2.684l.718-.724.791.791-.724.718a.791.791,0,0,0,0,1.114l.329.329a1.893,1.893,0,0,1,0,2.684ZM17.242,15.384a.557.557,0,0,1,.557-.557H32.276a.557.557,0,0,1,.557.557V26.52a.557.557,0,0,1-.557.557H29.353V25.964h2.366V15.941H18.356V25.964H21.7v1.114H17.8a.557.557,0,0,1-.557-.557Z" transform="translate(-2.766 -4.804)" fill="#fff"/>
          <path id="Trazado_950" data-name="Trazado 950" d="M20.072,9.009A2.227,2.227,0,0,0,22.3,6.782V2.328H17.845V6.782A2.227,2.227,0,0,0,20.072,9.009Z" transform="translate(-6.709 -2.328)" fill="#fff"/>
          <path id="Trazado_951" data-name="Trazado 951" d="M35.589,9.009a2.227,2.227,0,0,0,2.227-2.227V2.328H33.362V6.782A2.227,2.227,0,0,0,35.589,9.009Z" transform="translate(-11.09 -2.328)" fill="#fff"/>
          <path id="Trazado_952" data-name="Trazado 952" d="M27.831,9.009a2.227,2.227,0,0,0,2.227-2.227V2.328H25.6V6.782A2.227,2.227,0,0,0,27.831,9.009Z" transform="translate(-8.899 -2.328)" fill="#fff"/>
          <path id="Trazado_953" data-name="Trazado 953" d="M41.121,2.328V6.782a2.227,2.227,0,0,0,4.454,0V2.328Z" transform="translate(-13.281 -2.328)" fill="#fff"/>
          <path id="Trazado_954" data-name="Trazado 954" d="M46.11,42.234V41.121H43.326a2.177,2.177,0,0,1-.312,1.114Z" transform="translate(-13.815 -13.281)" fill="#fff"/>
          <path id="Trazado_955" data-name="Trazado 955" d="M26.858,46.451h8.909a2.784,2.784,0,0,0,2.728-2.228H24.129A2.784,2.784,0,0,0,26.858,46.451Z" transform="translate(-8.483 -14.157)" fill="#fff"/>
          <path id="Trazado_957" data-name="Trazado 957" d="M18.787,42.234a2.177,2.177,0,0,1-.312-1.114H2.328v1.114Z" transform="translate(-2.328 -13.281)" fill="#fff"/>
          <path id="Trazado_958" data-name="Trazado 958" d="M4.555,9.009A2.227,2.227,0,0,0,6.782,6.782V2.328H2.328V6.782A2.227,2.227,0,0,0,4.555,9.009Z" transform="translate(-2.328 -2.328)" fill="#fff"/>
        </g>
      </g>
    </g>
    <g id="Grupo_4733" data-name="Grupo 4733" transform="translate(-43.031 -135.846)">
      <path id="Icon_ionic-ios-warning" data-name="Icon ionic-ios-warning" d="M11.081,5.177,3.537,18.945a1.3,1.3,0,0,0,1.154,1.913H19.784a1.3,1.3,0,0,0,1.154-1.913L13.39,5.177A1.322,1.322,0,0,0,11.081,5.177Zm1.9,5.713-.153,5.2H11.639l-.153-5.2Zm-.75,8.026a.784.784,0,1,1,.814-.784A.791.791,0,0,1,12.236,18.915Z" transform="translate(189.656 464.845)" fill="#ccc"/>
    </g>
  </g>
</svg>
