<svg id="Grupo_5403" data-name="Grupo 5403" xmlns="http://www.w3.org/2000/svg" xmlns:xlink="http://www.w3.org/1999/xlink" width="283.569" height="257.83" viewBox="0 0 283.569 257.83">
  <defs>
    <linearGradient id="linear-gradient" x1="0.813" y1="-0.189" x2="-0.107" y2="1.247" gradientUnits="objectBoundingBox">
      <stop offset="0" stop-color="#f2f2f2"/>
      <stop offset="1" stop-color="#101010"/>
    </linearGradient>
    <filter id="Trazado_969" x="121.063" y="55.823" width="142.616" height="194.358" filterUnits="userSpaceOnUse">
      <feOffset dy="6" input="SourceAlpha"/>
      <feGaussianBlur stdDeviation="6" result="blur"/>
      <feFlood flood-opacity="0.565"/>
      <feComposite operator="in" in2="blur"/>
      <feComposite in="SourceGraphic"/>
    </filter>
    <filter id="Trazado_971" x="74.416" y="73.78" width="126.211" height="121.402" filterUnits="userSpaceOnUse">
      <feOffset dy="6" input="SourceAlpha"/>
      <feGaussianBlur stdDeviation="6" result="blur-2"/>
      <feFlood flood-opacity="0.565"/>
      <feComposite operator="in" in2="blur-2"/>
      <feComposite in="SourceGraphic"/>
    </filter>
  </defs>
  <g id="Grupo_1437" data-name="Grupo 1437" transform="translate(29.126 55.823)">
    <g transform="matrix(1, 0, 0, 1, -29.13, -55.82)" filter="url(#Trazado_969)">
      <path id="Trazado_969-2" data-name="Trazado 969" d="M121.145,72.044a97.053,97.053,0,0,0-1.977-16.36,97.627,97.627,0,0,0-4.65-15.637A99.111,99.111,0,0,0,107.35,25.4,101.341,101.341,0,0,0,97.809,12L69.558,42.592A57.591,57.591,0,0,1,77.88,64.555a56.95,56.95,0,0,1-1.044,22.7,58.216,58.216,0,0,1-9.95,20.8,60.708,60.708,0,0,1-18.323,16.123,64.515,64.515,0,0,1-22.117,7.72,63.29,63.29,0,0,1-7.939.717l-.439.574,33.95,37.173a107.292,107.292,0,0,0,29.321-15.809,103.226,103.226,0,0,0,22.139-23.067,99.151,99.151,0,0,0,13.647-28.189A96.763,96.763,0,0,0,121.145,72.044Z" transform="translate(121.06 55.82)" fill="url(#linear-gradient)"/>
    </g>
    <path id="Trazado_970" data-name="Trazado 970" d="M109.566,119.95h-.878a63.791,63.791,0,0,1-24.509-4.85,62.063,62.063,0,0,1-19.824-13.146,59.312,59.312,0,0,1-13.07-19.288,57.122,57.122,0,0,1-4.414-23.283,56.281,56.281,0,0,1,.658-7.48,57.674,57.674,0,0,1,1.628-7.3,59.1,59.1,0,0,1,2.55-7.037,60.356,60.356,0,0,1,3.424-6.687L26.316,0A99.066,99.066,0,0,0,7.486,35,97.527,97.527,0,0,0,16,110.647a101.466,101.466,0,0,0,27.4,31.257q3.593,2.675,7.39,5.073t7.784,4.486q3.988,2.087,8.149,3.838t8.483,3.131l34.658-37.908Z" transform="translate(0 12.661)" fill="#f2f2f2" opacity="0.1"/>
  </g>
  <path id="Elipse_186" data-name="Elipse 186" d="M141.421,90A41.861,41.861,0,0,1,157,92.982a40.818,40.818,0,0,1,12.813,8.163,39.056,39.056,0,0,1,8.772,12.192,37.629,37.629,0,0,1,.422,30.29,38.809,38.809,0,0,1-8.588,12.547,40.6,40.6,0,0,1-12.94,8.519,42.183,42.183,0,0,1-31.922,0,40.75,40.75,0,0,1-12.963-8.519,38.956,38.956,0,0,1-8.622-12.547,37.625,37.625,0,0,1,.339-30.29,38.906,38.906,0,0,1,8.738-12.192,40.668,40.668,0,0,1,12.79-8.163A41.8,41.8,0,0,1,141.421,90Z" transform="translate(0 0)" fill="rgba(92,190,248,0.88)"/>
  <g transform="matrix(1, 0, 0, 1, 0, 0)" filter="url(#Trazado_971)">
    <path id="Trazado_971-2" data-name="Trazado 971" d="M63.1,12a45.831,45.831,0,0,0-17.066,3.268,44.785,44.785,0,0,0-14.042,8.945,42.845,42.845,0,0,0-9.622,13.36,41.179,41.179,0,0,0-.457,33.212,42.73,42.73,0,0,0,9.443,13.788,44.707,44.707,0,0,0,14.223,9.374,46.186,46.186,0,0,0,35.049,0,44.7,44.7,0,0,0,14.223-9.374,42.726,42.726,0,0,0,9.442-13.788,41.179,41.179,0,0,0-.459-33.212,42.85,42.85,0,0,0-9.623-13.36,44.789,44.789,0,0,0-14.043-8.945A45.832,45.832,0,0,0,63.1,12Zm0,64.985a24.505,24.505,0,0,1-9.291-1.817,24.011,24.011,0,0,1-7.6-4.95,22.882,22.882,0,0,1-5.1-7.326,22.009,22.009,0,0,1,.111-17.775,22.975,22.975,0,0,1,5.116-7.209,23.95,23.95,0,0,1,7.539-4.86,24.853,24.853,0,0,1,18.44-.019,23.829,23.829,0,0,1,7.539,4.828,22.782,22.782,0,0,1,5.117,7.2,22.13,22.13,0,0,1,1.93,8.89h0a22.472,22.472,0,0,1-1.879,8.943,23.112,23.112,0,0,1-5.092,7.326,23.883,23.883,0,0,1-7.563,4.95A24.358,24.358,0,0,1,63.1,76.985Z" transform="translate(74.42 73.78)" fill="url(#linear-gradient)"/>
  </g>
</svg>
