<svg xmlns="http://www.w3.org/2000/svg" width="37.125" height="37.125" viewBox="0 0 37.125 37.125">
  <path id="Icon_awesome-info-circle" data-name="Icon awesome-info-circle" d="M19.125.563A18.563,18.563,0,1,0,37.688,19.125,18.565,18.565,0,0,0,19.125.563Zm0,8.233a3.144,3.144,0,1,1-3.144,3.144A3.144,3.144,0,0,1,19.125,8.8Zm4.192,19.012a.9.9,0,0,1-.9.9H15.832a.9.9,0,0,1-.9-.9v-1.8a.9.9,0,0,1,.9-.9h.9v-4.79h-.9a.9.9,0,0,1-.9-.9v-1.8a.9.9,0,0,1,.9-.9h4.79a.9.9,0,0,1,.9.9v7.485h.9a.9.9,0,0,1,.9.9Z" transform="translate(-0.563 -0.563)" fill="rgba(255,255,255,0.5)"/>
</svg>
