<svg xmlns="http://www.w3.org/2000/svg" width="32" height="31" viewBox="0 0 32 31">
  <g id="person_pin_circle-_Añadir_servicioblack-18dp" data-name="person_pin_circle- Añadir servicioblack-18dp" transform="translate(0.045 -0.218)">
    <g id="Grupo_329" data-name="Grupo 329" transform="translate(0)">
      <rect id="Rectángulo_724" data-name="Rectángulo 724" width="32" height="31" transform="translate(-0.045 0.218)" fill="none"/>
    </g>
    <g id="Grupo_332" data-name="Grupo 332" transform="translate(6.576 2.646)">
      <g id="Grupo_331" data-name="Grupo 331">
        <g id="Grupo_330" data-name="Grupo 330">
          <path id="Trazado_530" data-name="Trazado 530" d="M14.262,2A9.272,9.272,0,0,0,5,11.262c0,6.947,9.262,17.2,9.262,17.2s9.262-10.254,9.262-17.2A9.272,9.272,0,0,0,14.262,2Zm0,2.646a2.646,2.646,0,1,1-2.646,2.646A2.654,2.654,0,0,1,14.262,4.646Zm0,13.232a6.328,6.328,0,0,1-5.293-2.845C9,13.287,12.5,12.321,14.262,12.321s5.266.966,5.293,2.712A6.328,6.328,0,0,1,14.262,17.878Z" transform="translate(-5 -2)" fill="#f2f2f2"/>
        </g>
      </g>
    </g>
  </g>
</svg>
