<svg id="payments-_Añadir_servicio_24px" data-name="payments- Añadir servicio 24px" xmlns="http://www.w3.org/2000/svg" width="23.92" height="23.92" viewBox="0 0 23.92 23.92">
  <path id="Trazado_541" data-name="Trazado 541" d="M0,0H23.92V23.92H0Z" fill="none"/>
  <path id="Trazado_542" data-name="Trazado 542" d="M18.94,13.967V5.993A2,2,0,0,0,16.946,4H2.993A2,2,0,0,0,1,5.993v7.973A2,2,0,0,0,2.993,15.96H16.946A2,2,0,0,0,18.94,13.967Zm-8.97-1a2.99,2.99,0,1,1,2.99-2.99A2.986,2.986,0,0,1,9.97,12.97ZM22.926,6.99V17.953a2,2,0,0,1-1.993,1.993H3.99V17.953H20.933V6.99Z" transform="translate(-0.003 -0.013)" fill="#f2f2f2"/>
</svg>
