<svg xmlns="http://www.w3.org/2000/svg" width="82" height="82" viewBox="0 0 82 82">
  <g id="person_pin_circle-_Añadir_servicioblack-18dp" data-name="person_pin_circle- Añadir servicioblack-18dp" transform="translate(-0.118)">
    <g id="Grupo_329" data-name="Grupo 329" transform="translate(0.118)">
      <rect id="Rectángulo_724" data-name="Rectángulo 724" width="82" height="82" fill="none"/>
    </g>
    <g id="Grupo_332" data-name="Grupo 332" transform="translate(17.129 6.845)">
      <g id="Grupo_331" data-name="Grupo 331">
        <g id="Grupo_330" data-name="Grupo 330">
          <path id="Trazado_530" data-name="Trazado 530" d="M28.958,2A23.985,23.985,0,0,0,5,25.958C5,43.927,28.958,70.452,28.958,70.452S52.917,43.927,52.917,25.958A23.985,23.985,0,0,0,28.958,2Zm0,6.845a6.845,6.845,0,1,1-6.845,6.845A6.865,6.865,0,0,1,28.958,8.845Zm0,34.226a16.369,16.369,0,0,1-13.69-7.359c.068-4.518,9.138-7.016,13.69-7.016s13.622,2.5,13.69,7.016A16.369,16.369,0,0,1,28.958,43.071Z" transform="translate(-5 -2)" fill="#28313a"/>
        </g>
      </g>
    </g>
  </g>
</svg>
