<svg id="work-_Añadir_servicio_24px" data-name="work- Añadir servicio 24px" xmlns="http://www.w3.org/2000/svg" width="20.304" height="20.304" viewBox="0 0 20.304 20.304">
  <path id="Trazado_537" data-name="Trazado 537" d="M0,0H20.3V20.3H0Z" fill="none"/>
  <path id="Trazado_538" data-name="Trazado 538" d="M17.228,5.384H13.844V3.692A1.686,1.686,0,0,0,12.152,2H8.768A1.686,1.686,0,0,0,7.076,3.692V5.384H3.692A1.679,1.679,0,0,0,2.008,7.076L2,16.382a1.686,1.686,0,0,0,1.692,1.692H17.228a1.686,1.686,0,0,0,1.692-1.692V7.076A1.686,1.686,0,0,0,17.228,5.384Zm-5.076,0H8.768V3.692h3.384Z" transform="translate(-0.308 -0.308)" fill="#f2f2f2"/>
</svg>
